<svg xmlns="http://www.w3.org/2000/svg" xmlns:svg="http://www.w3.org/2000/svg" id="svg2" width="256" height="256" version="1.1" viewBox="0 0 256 256"><metadata id="metadata7"/><g id="layer1" transform="translate(0,-796.36216)"><g id="gx" transform="translate(-5,0.35714286)"><path id="path4138" d="M 45,812.00502 77,852.00502" style="opacity:1;fill:none;fill-opacity:1;stroke:#000;stroke-width:1.08618891;stroke-linecap:butt;stroke-linejoin:miter;stroke-miterlimit:4;stroke-dasharray:none;stroke-dashoffset:0;stroke-opacity:1"/><path id="path4142" d="M 45,852.00502 77,812.00502" style="opacity:1;fill:none;fill-opacity:1;stroke:#000;stroke-width:1.08618891;stroke-linecap:butt;stroke-linejoin:miter;stroke-miterlimit:4;stroke-dasharray:none;stroke-dashoffset:0;stroke-opacity:1"/></g><g id="gz"><path id="xxxxx" d="M 136,812.36216 168,812.36216 136,852.36216 168,852.36216" style="opacity:1;fill:none;fill-opacity:1;stroke:#000;stroke-width:1.18506491;stroke-linecap:butt;stroke-linejoin:miter;stroke-miterlimit:4;stroke-dasharray:none;stroke-dashoffset:0;stroke-opacity:1"/></g><g id="gy"><path id="path4181" d="M 88,812.36216 104,832.07645 120,812.36216" style="opacity:1;fill:none;fill-opacity:1;stroke:#000;stroke-width:1.25;stroke-linecap:butt;stroke-linejoin:miter;stroke-miterlimit:4;stroke-dasharray:none;stroke-dashoffset:0;stroke-opacity:1"/><path id="path4185" d="M 104,831.7193 104,852.36216" style="opacity:1;fill:none;fill-opacity:1;stroke:#000;stroke-width:1.25;stroke-linecap:butt;stroke-linejoin:miter;stroke-miterlimit:4;stroke-dasharray:none;stroke-dashoffset:0;stroke-opacity:1"/></g><g id="g1"><path id="path4193" d="M 34.321429,881.32645 48,868.36216 48,908.36216" style="opacity:1;fill:none;fill-opacity:1;stroke:#000;stroke-width:1.25;stroke-linecap:butt;stroke-linejoin:miter;stroke-miterlimit:4;stroke-dasharray:none;stroke-dashoffset:0;stroke-opacity:1"/></g><g id="g2"><path id="path4844" d="M 83.211315,875.20666 89.27223,870.78724 96.848375,869.65082 104.32888,872.9428 107.70751,880.13115 105.30774,888.52904 96.722101,899.07151 82.57997,911.82469 111.36932,911.69842" style="opacity:1;fill:none;fill-opacity:1;stroke:#000;stroke-width:1.25;stroke-linecap:butt;stroke-linejoin:miter;stroke-miterlimit:4;stroke-dasharray:none;stroke-dashoffset:0;stroke-opacity:1"/></g><g id="g3"><path style="opacity:1;fill:none;fill-opacity:1;stroke:#000;stroke-width:1.11443913;stroke-linecap:butt;stroke-linejoin:miter;stroke-miterlimit:4;stroke-dasharray:none;stroke-dashoffset:0;stroke-opacity:1" id="path4157" d="M 133.91061,870.44249 159.51328,870.44249 146.51003,886.5551 156.92431,891.67247 159.70379,901.84319 154.9911,910.30183 146.28015,913.17829 138.47754,909.91752 133.72604,901.29962"/></g></g></svg>